<svg xmlns="http://www.w3.org/2000/svg" version="1.1" xlink="http://www.w3.org/1999/xlink" xmlns:svgjs="http://svgjs.com/svgjs" width="100%" height="100%" preserveAspectRatio="xMidYMid meet" viewBox="2.6613333758973567e-8 9.227828496173682e-15 300.0049133300781 108.18830108642578" overflow="visible"><defs id="SvgjsDefs66550"></defs><g id="SvgjsG66551" transform="scale(0.6493506493506495)" opacity="1"><g id="SvgjsG66552" class="7CCsQV9uV" transform="translate(-1.1646036724912296, 1.4210854715202004e-14) scale(1.6660996745225076)" light-content="false" non-strokable="false" fill="#1dcd72"><path d="M44 0l43.301 25v50L44 100 .699 75V25z"></path></g><g id="SvgjsG66553" class="XatFdZVc4I" transform="translate(27.338684286811663, 38.827805935419356) scale(0.8893212901098492)" light-content="true" non-strokable="false" fill="#ffffff"><path d="M90.1 75.1l-.5-1c-1.4-3.3-18.6-8.3-20-8.4l-1.1.1c-2.1.4-4.4 2.3-8.9 6.2-.9.8-2.1 1-3.2.4-5.9-3.3-13.1-9.9-16.7-13.9-3.9-4.3-8.6-11.4-10.8-17.1-.4-1.1 0-2.3.8-3.1 5.1-4.6 7.3-6.8 7.5-9.2.1-1.4-2.9-19.1-6-20.8l-.9-.6c-2-1.3-5-3.2-8.3-2.5-.8.2-1.6.5-2.3.9-2.2 1.4-7.7 5.2-10.2 10.1C8 19.3 7.3 47.4 28.3 71.1c20.8 23.5 46.5 24.5 50.3 23.7h.1l.3-.1c5.2-1.9 9.6-6.8 11.3-8.9 3.1-3.7 1-8.2-.2-10.7z"></path></g><g id="SvgjsG66554" class="text" transform="translate(317.58750881926414, 114.51436447804062) scale(1)" light-content="false" fill="#1dcd72"><path d="M-119.84 1.08C-112.07 1.08 -105.72 -1.81 -100.78 -7.59L-107.83 -15.9C-109.27 -14.33 -110.94 -13.02 -112.84 -11.97C-114.74 -10.92 -116.89 -10.39 -119.3 -10.39C-123.64 -10.39 -127.1 -12.06 -129.69 -15.4C-132.28 -18.75 -133.57 -23.46 -133.57 -29.54C-133.57 -32.49 -133.2 -35.14 -132.45 -37.49C-131.69 -39.84 -130.67 -41.83 -129.37 -43.46C-128.08 -45.08 -126.54 -46.33 -124.77 -47.21C-122.99 -48.08 -121.11 -48.52 -119.12 -48.52C-117.01 -48.52 -115.13 -48.08 -113.47 -47.21C-111.82 -46.33 -110.24 -45.2 -108.73 -43.82L-101.68 -52.31C-103.67 -54.36 -106.17 -56.15 -109.18 -57.69C-112.19 -59.22 -115.6 -59.99 -119.39 -59.99C-123.12 -59.99 -126.68 -59.3 -130.05 -57.91C-133.42 -56.53 -136.38 -54.51 -138.9 -51.86C-141.43 -49.21 -143.45 -45.97 -144.96 -42.15C-146.46 -38.32 -147.22 -33.97 -147.22 -29.09C-147.22 -24.15 -146.49 -19.8 -145.05 -16.04C-143.6 -12.27 -141.63 -9.12 -139.13 -6.6C-136.63 -4.07 -133.73 -2.15 -130.41 -0.86C-127.1 0.44 -123.58 1.08 -119.84 1.08Z M-81.63 1.08C-79.1 1.08 -76.78 0.56 -74.67 -0.5C-72.56 -1.55 -70.54 -2.92 -68.62 -4.61L-68.26 -4.61L-67.35 0L-56.51 0L-56.51 -25.66C-56.51 -32.58 -58.03 -37.69 -61.07 -40.97C-64.11 -44.25 -68.53 -45.9 -74.31 -45.9C-77.86 -45.9 -81.22 -45.35 -84.38 -44.27C-87.54 -43.18 -90.57 -41.77 -93.46 -40.02L-88.67 -31.26C-86.5 -32.52 -84.47 -33.52 -82.57 -34.24C-80.68 -34.96 -78.77 -35.32 -76.84 -35.32C-74.37 -35.32 -72.61 -34.74 -71.55 -33.56C-70.5 -32.39 -69.91 -30.81 -69.79 -28.82C-78.65 -27.92 -85.06 -26.14 -89.03 -23.49C-93.01 -20.84 -95 -17.17 -95 -12.47C-95 -10.54 -94.68 -8.76 -94.05 -7.14C-93.42 -5.51 -92.53 -4.08 -91.38 -2.85C-90.24 -1.61 -88.84 -0.65 -87.18 0.05C-85.53 0.74 -83.67 1.08 -81.63 1.08ZM-77.11 -9.22C-78.68 -9.22 -79.92 -9.56 -80.86 -10.25C-81.79 -10.95 -82.26 -12.02 -82.26 -13.46C-82.26 -15.21 -81.36 -16.71 -79.55 -17.98C-77.74 -19.24 -74.49 -20.21 -69.79 -20.87L-69.79 -13.01C-71 -11.81 -72.14 -10.87 -73.22 -10.21C-74.31 -9.55 -75.6 -9.22 -77.11 -9.22Z M-33.11 1.08C-31.61 1.08 -30.3 0.98 -29.18 0.77C-28.07 0.56 -27.15 0.3 -26.43 0L-28.05 -9.85C-28.41 -9.73 -28.7 -9.67 -28.91 -9.67L-29.68 -9.67C-30.22 -9.67 -30.75 -9.94 -31.26 -10.48C-31.77 -11.02 -32.03 -11.99 -32.03 -13.37L-32.03 -63.33L-45.31 -63.33L-45.31 -13.91C-45.31 -11.62 -45.1 -9.56 -44.68 -7.72C-44.25 -5.89 -43.58 -4.32 -42.64 -3.03C-41.71 -1.73 -40.46 -0.72 -38.89 0C-37.33 0.72 -35.4 1.08 -33.11 1.08Z M-7.27 1.08C-5.77 1.08 -4.46 0.98 -3.34 0.77C-2.23 0.56 -1.31 0.3 -0.59 0L-2.21 -9.85C-2.57 -9.73 -2.86 -9.67 -3.07 -9.67L-3.84 -9.67C-4.38 -9.67 -4.91 -9.94 -5.42 -10.48C-5.93 -11.02 -6.19 -11.99 -6.19 -13.37L-6.19 -63.33L-19.47 -63.33L-19.47 -13.91C-19.47 -11.62 -19.26 -9.56 -18.84 -7.72C-18.42 -5.89 -17.74 -4.32 -16.8 -3.03C-15.87 -1.73 -14.62 -0.72 -13.05 0C-11.49 0.72 -9.56 1.08 -7.27 1.08Z M39.35 -29.81C40.19 -32.76 40.99 -35.88 41.74 -39.16C42.49 -42.45 43.23 -45.65 43.95 -48.79L44.31 -48.79C45.1 -45.71 45.88 -42.52 46.66 -39.21C47.45 -35.9 48.26 -32.76 49.1 -29.81L50.46 -24.39L37.9 -24.39ZM18.02 0L31.58 0L35.19 -14L53.17 -14L56.78 0L70.88 0L52.45 -58.9L36.45 -58.9Z M77.29 0L90.57 0L90.57 -19.97L97.89 -19.97C101.02 -19.97 103.97 -20.36 106.74 -21.14C109.51 -21.92 111.95 -23.13 114.06 -24.75C116.17 -26.38 117.84 -28.46 119.07 -30.99C120.31 -33.52 120.93 -36.5 120.93 -39.93C120.93 -43.49 120.31 -46.48 119.07 -48.92C117.84 -51.36 116.17 -53.32 114.06 -54.79C111.95 -56.27 109.48 -57.32 106.65 -57.96C103.82 -58.59 100.78 -58.9 97.53 -58.9L77.29 -58.9ZM90.57 -30.54L90.57 -48.33L96.71 -48.33C100.33 -48.33 103.1 -47.7 105.03 -46.44C106.95 -45.17 107.92 -43 107.92 -39.93C107.92 -33.67 104.3 -30.54 97.08 -30.54Z M131.14 0L144.42 0L144.42 -58.9L131.14 -58.9Z"></path></g></g></svg>
