<svg xmlns="http://www.w3.org/2000/svg" version="1.1" xlink="http://www.w3.org/1999/xlink" xmlns:svgjs="http://svgjs.com/svgjs" width="100%" height="100%" preserveAspectRatio="xMidYMid meet" viewBox="7.674363189380529e-8 8.612304052964086e-15 279.98858642578125 146.99998474121094" overflow="visible"><defs id="SvgjsDefs61874"></defs><g id="SvgjsG61875" transform="scale(0.6060370773977114)" opacity="1"><g id="SvgjsG61876" class="hECKDs71r" transform="translate(-1.6954903228234024, 1.4210854715202004e-14) scale(2.4255941671293377)" light-content="false" non-strokable="false" fill="#1dcd72"><path d="M44 0l43.301 25v50L44 100 .699 75V25z"></path></g><g id="SvgjsG61877" class="OC9ZU-rNsx" transform="translate(39.801072022948176, 56.5275301589471) scale(1.29471997803049)" light-content="true" non-strokable="false" fill="#ffffff"><path d="M90.1 75.1l-.5-1c-1.4-3.3-18.6-8.3-20-8.4l-1.1.1c-2.1.4-4.4 2.3-8.9 6.2-.9.8-2.1 1-3.2.4-5.9-3.3-13.1-9.9-16.7-13.9-3.9-4.3-8.6-11.4-10.8-17.1-.4-1.1 0-2.3.8-3.1 5.1-4.6 7.3-6.8 7.5-9.2.1-1.4-2.9-19.1-6-20.8l-.9-.6c-2-1.3-5-3.2-8.3-2.5-.8.2-1.6.5-2.3.9-2.2 1.4-7.7 5.2-10.2 10.1C8 19.3 7.3 47.4 28.3 71.1c20.8 23.5 46.5 24.5 50.3 23.7h.1l.3-.1c5.2-1.9 9.6-6.8 11.3-8.9 3.1-3.7 1-8.2-.2-10.7z"></path></g><g id="SvgjsG61878" class="text" transform="translate(360.6748191402254, 221.97558720992765) scale(1)" light-content="false" fill="#1dcd72"><path d="M-66.42 -43.4C-65.19 -47.7 -64.03 -52.24 -62.94 -57.02C-61.84 -61.8 -60.77 -66.47 -59.71 -71.03L-59.19 -71.03C-58.05 -66.55 -56.91 -61.91 -55.77 -57.08C-54.63 -52.26 -53.44 -47.7 -52.22 -43.4L-50.24 -35.51L-68.53 -35.51ZM-97.46 0L-77.73 0L-72.47 -20.39L-46.3 -20.39L-41.04 0L-20.52 0L-47.35 -85.76L-70.63 -85.76Z M-11.18 0L8.15 0L8.15 -29.07L18.81 -29.07C23.37 -29.07 27.66 -29.64 31.7 -30.78C35.73 -31.92 39.28 -33.67 42.35 -36.04C45.42 -38.41 47.85 -41.43 49.65 -45.11C51.45 -48.8 52.35 -53.14 52.35 -58.14C52.35 -63.31 51.45 -67.67 49.65 -71.22C47.85 -74.77 45.42 -77.62 42.35 -79.77C39.28 -81.92 35.69 -83.45 31.57 -84.38C27.45 -85.3 23.02 -85.76 18.28 -85.76L-11.18 -85.76ZM8.15 -44.46L8.15 -70.37L17.1 -70.37C22.36 -70.37 26.39 -69.45 29.2 -67.61C32.01 -65.76 33.41 -62.61 33.41 -58.14C33.41 -49.02 28.15 -44.46 17.62 -44.46Z M67.21 0L86.55 0L86.55 -85.76L67.21 -85.76Z"></path></g><g id="SvgjsG61879" class="text" transform="translate(353.0291527717685, 108.49160320268246) scale(1)" light-content="false" fill="#1dcd72"><path d="M-64.65 1.58C-53.33 1.58 -44.08 -2.63 -36.89 -11.05L-47.15 -23.15C-49.26 -20.87 -51.69 -18.96 -54.45 -17.43C-57.21 -15.89 -60.35 -15.13 -63.86 -15.13C-70.17 -15.13 -75.21 -17.56 -78.98 -22.43C-82.75 -27.29 -84.64 -34.15 -84.64 -43.01C-84.64 -47.31 -84.09 -51.16 -82.99 -54.58C-81.9 -58 -80.41 -60.9 -78.52 -63.27C-76.64 -65.63 -74.4 -67.45 -71.81 -68.72C-69.23 -70 -66.49 -70.63 -63.59 -70.63C-60.52 -70.63 -57.78 -70 -55.37 -68.72C-52.96 -67.45 -50.66 -65.81 -48.47 -63.79L-38.21 -76.15C-41.1 -79.14 -44.74 -81.74 -49.13 -83.98C-53.51 -86.22 -58.46 -87.33 -63.99 -87.33C-69.43 -87.33 -74.6 -86.33 -79.51 -84.31C-84.42 -82.29 -88.72 -79.36 -92.4 -75.5C-96.08 -71.64 -99.02 -66.93 -101.21 -61.36C-103.4 -55.79 -104.5 -49.45 -104.5 -42.35C-104.5 -35.16 -103.45 -28.83 -101.34 -23.35C-99.24 -17.87 -96.37 -13.28 -92.73 -9.6C-89.09 -5.92 -84.86 -3.13 -80.04 -1.25C-75.21 0.64 -70.08 1.58 -64.65 1.58Z M-9.01 1.58C-5.33 1.58 -1.95 0.81 1.12 -0.72C4.19 -2.26 7.12 -4.25 9.93 -6.71L10.46 -6.71L11.77 0L27.56 0L27.56 -37.35C27.56 -47.44 25.34 -54.87 20.91 -59.65C16.48 -64.43 10.06 -66.82 1.64 -66.82C-3.53 -66.82 -8.42 -66.03 -13.02 -64.45C-17.62 -62.87 -22.03 -60.81 -26.24 -58.27L-19.27 -45.51C-16.11 -47.35 -13.15 -48.8 -10.39 -49.85C-7.63 -50.9 -4.84 -51.43 -2.04 -51.43C1.56 -51.43 4.12 -50.57 5.66 -48.86C7.19 -47.15 8.05 -44.85 8.22 -41.96C-4.67 -40.64 -14.01 -38.06 -19.8 -34.2C-25.58 -30.34 -28.48 -24.99 -28.48 -18.15C-28.48 -15.34 -28.02 -12.76 -27.09 -10.39C-26.17 -8.02 -24.88 -5.94 -23.21 -4.14C-21.55 -2.35 -19.51 -0.94 -17.1 0.07C-14.69 1.07 -11.99 1.58 -9.01 1.58ZM-2.43 -13.42C-4.71 -13.42 -6.53 -13.92 -7.89 -14.93C-9.25 -15.94 -9.93 -17.49 -9.93 -19.6C-9.93 -22.14 -8.62 -24.33 -5.98 -26.17C-3.35 -28.02 1.38 -29.42 8.22 -30.38L8.22 -18.94C6.47 -17.19 4.8 -15.83 3.22 -14.86C1.64 -13.9 -0.24 -13.42 -2.43 -13.42Z M61.62 1.58C63.81 1.58 65.72 1.42 67.34 1.12C68.96 0.81 70.3 0.44 71.35 0L68.99 -14.34C68.46 -14.16 68.04 -14.07 67.74 -14.07L66.62 -14.07C65.83 -14.07 65.06 -14.47 64.32 -15.26C63.57 -16.05 63.2 -17.45 63.2 -19.47L63.2 -92.2L43.86 -92.2L43.86 -20.26C43.86 -16.92 44.17 -13.92 44.79 -11.25C45.4 -8.57 46.39 -6.29 47.74 -4.41C49.1 -2.52 50.92 -1.05 53.2 0C55.48 1.05 58.29 1.58 61.62 1.58Z M99.24 1.58C101.43 1.58 103.34 1.42 104.96 1.12C106.58 0.81 107.92 0.44 108.97 0L106.6 -14.34C106.08 -14.16 105.66 -14.07 105.35 -14.07L104.24 -14.07C103.45 -14.07 102.68 -14.47 101.93 -15.26C101.19 -16.05 100.82 -17.45 100.82 -19.47L100.82 -92.2L81.48 -92.2L81.48 -20.26C81.48 -16.92 81.79 -13.92 82.4 -11.25C83.02 -8.57 84 -6.29 85.36 -4.41C86.72 -2.52 88.54 -1.05 90.82 0C93.1 1.05 95.91 1.58 99.24 1.58Z"></path></g></g></svg>
